<?xml version="1.0" standalone="no"?>
<!DOCTYPE svg PUBLIC "-//W3C//DTD SVG 20010904//EN"
 "http://www.w3.org/TR/2001/REC-SVG-20010904/DTD/svg10.dtd">
<svg version="1.0" xmlns="http://www.w3.org/2000/svg"
 width="625.000000pt" height="625.000000pt" viewBox="0 0 625.000000 625.000000"
 preserveAspectRatio="xMidYMid meet">
<metadata>
Created by potrace 1.14, written by Peter Selinger 2001-2017
</metadata>
<g transform="translate(0.000000,625.000000) scale(0.100000,-0.100000)"
fill="#000000" stroke="none">
<path d="M1530 3313 c-195 -584 -290 -854 -331 -944 -67 -142 -74 -189 -35
-214 30 -20 72 -11 91 19 16 25 64 162 203 589 71 216 100 294 107 284 6 -8
125 -219 265 -470 140 -251 258 -457 261 -457 3 0 118 234 255 520 136 286
252 516 255 512 4 -4 79 -227 166 -497 l159 -490 357 -3 c282 -2 357 0 357 10
0 19 -673 1958 -680 1958 -3 0 -131 -252 -285 -560 -154 -308 -283 -556 -286
-552 -4 4 -134 252 -288 552 -155 300 -286 549 -290 553 -5 5 -131 -360 -281
-810z"/>
<path d="M3882 3108 l3 -943 600 0 c563 0 603 1 629 18 22 15 27 25 24 50 -4
47 -39 61 -120 47 -35 -5 -150 -10 -255 -10 l-193 0 0 585 0 585 218 0 c199 0
220 2 235 18 33 36 11 92 -36 92 -12 1 -111 0 -219 0 l-198 -1 0 202 0 202
198 -7 c108 -3 229 -9 268 -12 80 -7 104 6 104 56 0 62 17 60 -652 60 l-608 0
2 -942z"/>
</g>
</svg>
