<?xml version="1.0" standalone="no"?>
<!DOCTYPE svg PUBLIC "-//W3C//DTD SVG 20010904//EN"
 "http://www.w3.org/TR/2001/REC-SVG-20010904/DTD/svg10.dtd">
<svg version="1.0" xmlns="http://www.w3.org/2000/svg"
 width="1000.000000pt" height="1000.000000pt" viewBox="0 0 1000.000000 1000.000000"
 preserveAspectRatio="xMidYMid meet">
<metadata>
Created by potrace 1.14, written by Peter Selinger 2001-2017
</metadata>
<g transform="translate(0.000000,1000.000000) scale(0.100000,-0.100000)"
fill="#000000" stroke="none">
<path d="M6210 5110 l0 -1030 50 0 50 0 0 -55 0 -55 1035 0 1035 0 0 1035 0
1035 -55 0 -55 0 0 50 0 50 -1030 0 -1030 0 0 -1030z"/>
<path d="M1941 5227 c-295 -888 -302 -907 -368 -1045 -56 -116 -63 -152 -34
-181 27 -27 54 -27 85 2 28 24 53 94 225 622 54 165 100 306 102 314 3 7 130
-210 283 -483 154 -273 283 -493 287 -489 4 4 123 250 265 546 142 295 260
537 263 537 3 0 80 -228 170 -507 91 -280 168 -516 173 -525 8 -17 36 -18 379
-18 293 0 370 3 367 13 -3 6 -162 464 -353 1017 -191 553 -351 1008 -354 1012
-3 3 -138 -256 -300 -577 -162 -321 -298 -582 -302 -579 -4 2 -141 263 -304
579 -163 316 -300 577 -304 579 -4 3 -130 -365 -280 -817z"/>
<path d="M4400 4985 l0 -985 603 0 c383 0 616 4 639 10 65 18 87 60 51 95 -14
15 -29 16 -87 11 -39 -3 -167 -9 -283 -13 l-213 -6 0 622 0 621 226 0 c136 0
233 4 245 10 25 14 25 61 0 84 -18 16 -39 17 -245 10 l-226 -7 0 218 0 217
228 -6 c125 -3 252 -9 283 -12 51 -5 58 -4 73 17 21 31 20 55 -4 79 -20 20
-33 20 -655 20 l-635 0 0 -985z"/>
</g>
</svg>
